<svg width="111" height="34" viewBox="0 0 111 34" fill="none" xmlns="http://www.w3.org/2000/svg">
<path d="M6.92041 8.99343H9.04003L6.15734 1.16486H3.68646L0.803772 8.99343H2.9234L3.34732 7.76322H6.49648L6.92041 8.99343ZM3.92871 6.08567L4.9219 3.21147L5.9151 6.08567H3.92871Z" fill="white"/>
<path d="M13.3296 3.40159L12.07 6.94682L10.8103 3.40159H8.79968L11.0404 8.99343H13.0995L15.3402 3.40159H13.3296Z" fill="white"/>
<path d="M20.167 3.40159V3.92722C19.7673 3.50224 19.1738 3.24502 18.3623 3.24502C16.7756 3.24502 15.4675 4.53114 15.4675 6.19751C15.4675 7.86388 16.7756 9.15 18.3623 9.15C19.1738 9.15 19.7673 8.89277 20.167 8.46779V8.99343H21.9839V3.40159H20.167ZM18.7257 7.56192C17.8899 7.56192 17.2843 7.03628 17.2843 6.19751C17.2843 5.35873 17.8899 4.8331 18.7257 4.8331C19.5614 4.8331 20.167 5.35873 20.167 6.19751C20.167 7.03628 19.5614 7.56192 18.7257 7.56192Z" fill="white"/>
<path d="M23.3168 8.99343H25.1336V0.829346H23.3168V8.99343Z" fill="white"/>
<path d="M27.3715 2.90951C27.965 2.90951 28.4616 2.45098 28.4616 1.90298C28.4616 1.35498 27.965 0.896448 27.3715 0.896448C26.778 0.896448 26.2814 1.35498 26.2814 1.90298C26.2814 2.45098 26.778 2.90951 27.3715 2.90951ZM26.4631 8.99343H28.2799V3.40159H26.4631V8.99343Z" fill="white"/>
<path d="M33.2309 3.24502C32.4194 3.24502 31.8259 3.50224 31.4262 3.92722V1.16486H29.6094V8.99343H31.4262V8.46779C31.8259 8.89277 32.4194 9.15 33.2309 9.15C34.8176 9.15 36.1257 7.86388 36.1257 6.19751C36.1257 4.53114 34.8176 3.24502 33.2309 3.24502ZM32.8676 7.56192C32.0318 7.56192 31.4262 7.03628 31.4262 6.19751C31.4262 5.35873 32.0318 4.8331 32.8676 4.8331C33.7033 4.8331 34.3089 5.35873 34.3089 6.19751C34.3089 7.03628 33.7033 7.56192 32.8676 7.56192Z" fill="white"/>
<path d="M37.1558 8.99343H38.9727V0.829346H37.1558V8.99343Z" fill="white"/>
<path d="M41.9252 6.86853H46.225C46.2734 6.65604 46.2977 6.43237 46.2977 6.19751C46.2977 4.50877 44.9896 3.24502 43.2212 3.24502C41.3075 3.24502 39.9994 4.53114 39.9994 6.19751C39.9994 7.86388 41.2832 9.15 43.3544 9.15C44.5051 9.15 45.4014 8.75857 45.9949 7.99808L44.5414 7.22641C44.2992 7.47245 43.8752 7.65139 43.3786 7.65139C42.7125 7.65139 42.1553 7.45008 41.9252 6.86853ZM41.8888 5.61596C42.0584 5.04559 42.5187 4.73245 43.2091 4.73245C43.7541 4.73245 44.2992 4.9673 44.493 5.61596H41.8888Z" fill="white"/>
<path d="M53.2631 9.15C55.0436 9.15 56.4728 7.86388 56.4728 6.19751C56.4728 4.53114 55.0436 3.24502 53.2631 3.24502C51.4826 3.24502 50.0534 4.53114 50.0534 6.19751C50.0534 7.86388 51.4826 9.15 53.2631 9.15ZM53.2631 7.51718C52.4758 7.51718 51.8702 6.99155 51.8702 6.19751C51.8702 5.40347 52.4758 4.87784 53.2631 4.87784C54.0504 4.87784 54.656 5.40347 54.656 6.19751C54.656 6.99155 54.0504 7.51718 53.2631 7.51718Z" fill="white"/>
<path d="M61.0493 3.24502C60.2499 3.24502 59.6443 3.51343 59.3173 3.92722V3.40159H57.5005V8.99343H59.3173V5.94028C59.3173 5.14624 59.7775 4.78837 60.4437 4.78837C61.0251 4.78837 61.4975 5.11269 61.4975 5.80608V8.99343H63.3143V5.56004C63.3143 4.05024 62.2726 3.24502 61.0493 3.24502Z" fill="white"/>
<path d="M71.1388 5.01204V3.40159H69.8913V1.83588L68.0745 2.33914V3.40159H67.1055V5.01204H68.0745V6.99155C68.0745 8.55726 68.7649 9.2171 71.1388 8.99343V7.47245C70.3394 7.51718 69.8913 7.47245 69.8913 6.99155V5.01204H71.1388Z" fill="white"/>
<path d="M75.7164 3.24502C74.917 3.24502 74.3114 3.51343 73.9843 3.92722V1.16486H72.1675V8.99343H73.9843V5.94028C73.9843 5.14624 74.4446 4.78837 75.1108 4.78837C75.6921 4.78837 76.1645 5.11269 76.1645 5.80608V8.99343H77.9813V5.56004C77.9813 4.05024 76.9397 3.24502 75.7164 3.24502Z" fill="white"/>
<path d="M80.852 6.86853H85.1518C85.2003 6.65604 85.2245 6.43237 85.2245 6.19751C85.2245 4.50877 83.9164 3.24502 82.148 3.24502C80.2343 3.24502 78.9262 4.53114 78.9262 6.19751C78.9262 7.86388 80.2101 9.15 82.2812 9.15C83.4319 9.15 84.3282 8.75857 84.9217 7.99808L83.4682 7.22641C83.226 7.47245 82.8021 7.65139 82.3055 7.65139C81.6393 7.65139 81.0821 7.45008 80.852 6.86853ZM80.8157 5.61596C80.9853 5.04559 81.4455 4.73245 82.1359 4.73245C82.681 4.73245 83.226 4.9673 83.4198 5.61596H80.8157Z" fill="white"/>
<path d="M10.9982 29.4968H14.5309L9.72639 16.4492H5.60826L0.803772 29.4968H4.33648L5.04302 27.4465H10.2916L10.9982 29.4968ZM6.012 24.6506L7.66732 19.8602L9.32265 24.6506H6.012Z" fill="white"/>
<path d="M21.6707 19.9161C20.3182 19.9161 19.3291 20.3449 18.6629 21.0532V20.1771H15.6348V33.2247H18.6629V28.6208C19.3291 29.3291 20.3182 29.7578 21.6707 29.7578C24.3152 29.7578 26.4954 27.6142 26.4954 24.837C26.4954 22.0597 24.3152 19.9161 21.6707 19.9161ZM21.0651 27.111C19.6722 27.111 18.6629 26.2349 18.6629 24.837C18.6629 23.439 19.6722 22.563 21.0651 22.563C22.458 22.563 23.4674 23.439 23.4674 24.837C23.4674 26.2349 22.458 27.111 21.0651 27.111Z" fill="white"/>
<path d="M34.2481 19.9161C32.8956 19.9161 31.9064 20.3449 31.2403 21.0532V20.1771H28.2122V33.2247H31.2403V28.6208C31.9064 29.3291 32.8956 29.7578 34.2481 29.7578C36.8926 29.7578 39.0728 27.6142 39.0728 24.837C39.0728 22.0597 36.8926 19.9161 34.2481 19.9161ZM33.6425 27.111C32.2496 27.111 31.2403 26.2349 31.2403 24.837C31.2403 23.439 32.2496 22.563 33.6425 22.563C35.0354 22.563 36.0448 23.439 36.0448 24.837C36.0448 26.2349 35.0354 27.111 33.6425 27.111Z" fill="white"/>
<path d="M40.7896 29.4968H43.8177V15.89H40.7896V29.4968Z" fill="white"/>
<path d="M48.7385 25.9553H55.9049C55.9857 25.6012 56.026 25.2284 56.026 24.837C56.026 22.0224 53.8458 19.9161 50.8985 19.9161C47.709 19.9161 45.5288 22.0597 45.5288 24.837C45.5288 27.6142 47.6686 29.7578 51.1206 29.7578C53.0384 29.7578 54.5322 29.1054 55.5214 27.8379L53.0989 26.5518C52.6952 26.9619 51.9886 27.2601 51.161 27.2601C50.0507 27.2601 49.1221 26.9246 48.7385 25.9553ZM48.678 23.8677C48.9606 22.9171 49.7277 22.3952 50.8784 22.3952C51.7868 22.3952 52.6952 22.7866 53.0182 23.8677H48.678Z" fill="white"/>
<path d="M67.8369 29.7578C70.9054 29.7578 73.0855 28.2666 73.0855 25.7503C73.0855 22.9917 70.6833 22.302 68.5435 21.7055C66.3431 21.0904 65.9999 20.6804 65.9999 20.0839C65.9999 19.562 66.5046 19.096 67.514 19.096C68.8059 19.096 69.4721 19.6738 69.9566 20.6058L72.6818 19.1333C71.6523 17.2134 69.8354 16.1883 67.514 16.1883C65.0713 16.1883 62.77 17.6421 62.77 20.1585C62.77 22.6561 64.8291 23.5881 66.9285 24.1287C69.0482 24.6692 69.8556 24.9861 69.8556 25.7876C69.8556 26.2908 69.4721 26.85 67.9379 26.85C66.3431 26.85 65.4751 26.1231 64.9704 25.042L62.1846 26.5332C62.9719 28.453 64.8695 29.7578 67.8369 29.7578Z" fill="white"/>
<path d="M80.2178 22.8612V20.1771H78.1386V17.5676L75.1105 18.4064V20.1771H73.4956V22.8612H75.1105V26.1604C75.1105 28.7699 76.2612 29.8696 80.2178 29.4968V26.9619C78.8855 27.0364 78.1386 26.9619 78.1386 26.1604V22.8612H80.2178Z" fill="white"/>
<path d="M86.58 29.7578C89.5475 29.7578 91.9296 27.6142 91.9296 24.837C91.9296 22.0597 89.5475 19.9161 86.58 19.9161C83.6125 19.9161 81.2305 22.0597 81.2305 24.837C81.2305 27.6142 83.6125 29.7578 86.58 29.7578ZM86.58 27.0364C85.2679 27.0364 84.2585 26.1604 84.2585 24.837C84.2585 23.5136 85.2679 22.6375 86.58 22.6375C87.8922 22.6375 88.9015 23.5136 88.9015 24.837C88.9015 26.1604 87.8922 27.0364 86.58 27.0364Z" fill="white"/>
<path d="M96.6703 21.836V20.1771H93.6423V29.4968H96.6703V25.2843C96.6703 23.439 98.4468 22.973 99.6984 23.1594V19.9907C98.4266 19.9907 97.0741 20.5872 96.6703 21.836Z" fill="white"/>
<path d="M103.523 25.9553H110.69C110.77 25.6012 110.811 25.2284 110.811 24.837C110.811 22.0224 108.63 19.9161 105.683 19.9161C102.494 19.9161 100.313 22.0597 100.313 24.837C100.313 27.6142 102.453 29.7578 105.905 29.7578C107.823 29.7578 109.317 29.1054 110.306 27.8379L107.884 26.5518C107.48 26.9619 106.773 27.2601 105.946 27.2601C104.835 27.2601 103.907 26.9246 103.523 25.9553ZM103.463 23.8677C103.745 22.9171 104.512 22.3952 105.663 22.3952C106.571 22.3952 107.48 22.7866 107.803 23.8677H103.463Z" fill="white"/>
</svg>
