<svg width="109" height="28" viewBox="0 0 109 28" fill="none" xmlns="http://www.w3.org/2000/svg">
<path d="M11.9456 4.90581H6.27716V6.99343H9.29712C8.89338 7.9925 7.90826 8.60388 6.40635 8.60388C4.21002 8.60388 2.85346 7.30657 2.85346 5.5321C2.85346 3.69797 4.27462 2.40067 6.18026 2.40067C7.45607 2.40067 8.47349 2.93748 8.94183 3.62342L11.1382 2.46031C10.1853 1.05863 8.36045 0.0744629 6.19641 0.0744629C2.86961 0.0744629 0.269531 2.49014 0.269531 5.51718C0.269531 8.51441 2.82116 10.9301 6.37405 10.9301C9.53936 10.9301 11.9456 8.99158 11.9456 5.8005V4.90581Z" fill="white"/>
<path d="M15.1788 8.42494V6.57591H19.2162V4.30935H15.1788V2.57961H19.62V0.283225H12.5949V10.7213H19.7007V8.42494H15.1788Z" fill="white"/>
<path d="M27.9414 0.283225H19.5436V2.57961H22.4505V10.7213H25.0345V2.57961H27.9414V0.283225Z" fill="white"/>
<path d="M31.4949 0.283225V10.7213H34.0788V0.283225H31.4949Z" fill="white"/>
<path d="M42.804 0.283225H34.4062V2.57961H37.3132V10.7213H39.8971V2.57961H42.804V0.283225Z" fill="white"/>
<path d="M51.7515 10.9301C54.9975 10.9301 57.6299 8.57406 57.6299 5.50227C57.6299 2.43049 54.9975 0.0744629 51.7515 0.0744629C48.5054 0.0744629 45.873 2.43049 45.873 5.50227C45.873 8.57406 48.5054 10.9301 51.7515 10.9301ZM51.7515 8.60388C49.9104 8.60388 48.457 7.36622 48.457 5.50227C48.457 3.63833 49.9104 2.40067 51.7515 2.40067C53.5925 2.40067 55.046 3.63833 55.046 5.50227C55.046 7.36622 53.5925 8.60388 51.7515 8.60388Z" fill="white"/>
<path d="M64.5756 0.283225V5.94962L60.2152 0.283225H58.2773V10.7213H60.8612V5.05493L65.2216 10.7213H67.1595V0.283225H64.5756Z" fill="white"/>
<path d="M11.9456 22.6357V23.0383C11.9456 24.3405 11.445 25.439 10.4437 26.3337C9.44247 27.2185 8.12359 27.6609 6.4871 27.6609C4.76448 27.6609 3.34333 27.1439 2.22362 26.1101C1.10392 25.0662 0.544073 23.7888 0.544073 22.2778C0.544073 20.7667 1.09854 19.4943 2.20748 18.4604C3.31641 17.4166 4.72142 16.8947 6.4225 16.8947C7.45607 16.8947 8.40351 17.1234 9.26482 17.5806C10.1369 18.0379 10.8098 18.6493 11.2835 19.4148L10.5245 19.8323C10.1477 19.1762 9.58781 18.6493 8.84493 18.2517C8.11282 17.854 7.30534 17.6552 6.4225 17.6552C4.95828 17.6552 3.75245 18.1025 2.80501 18.9972C1.86834 19.882 1.4 20.9755 1.4 22.2778C1.4 23.5801 1.87372 24.6785 2.82116 25.5732C3.7686 26.458 4.99058 26.9004 6.4871 26.9004C7.81136 26.9004 8.88262 26.5673 9.70086 25.9013C10.5191 25.2352 10.9767 24.3952 11.0736 23.3812H6.27716V22.6357H11.9456Z" fill="white"/>
<path d="M23.409 26.0951C22.2786 27.139 20.9005 27.6609 19.2748 27.6609C17.649 27.6609 16.2709 27.139 15.1405 26.0951C14.01 25.0414 13.4448 23.7689 13.4448 22.2778C13.4448 20.7866 14.01 19.5191 15.1405 18.4753C16.2709 17.4216 17.649 16.8947 19.2748 16.8947C20.9005 16.8947 22.2786 17.4216 23.409 18.4753C24.5395 19.5191 25.1047 20.7866 25.1047 22.2778C25.1047 23.7689 24.5395 25.0414 23.409 26.0951ZM15.738 25.5583C16.707 26.453 17.8859 26.9004 19.2748 26.9004C20.6636 26.9004 21.8371 26.453 22.7954 25.5583C23.7643 24.6537 24.2488 23.5602 24.2488 22.2778C24.2488 20.9954 23.7643 19.9068 22.7954 19.0121C21.8371 18.1075 20.6636 17.6552 19.2748 17.6552C17.8859 17.6552 16.707 18.1075 15.738 19.0121C14.7798 19.9068 14.3007 20.9954 14.3007 22.2778C14.3007 23.5602 14.7798 24.6537 15.738 25.5583Z" fill="white"/>
<path d="M36.5936 26.0951C35.4631 27.139 34.0851 27.6609 32.4593 27.6609C30.8336 27.6609 29.4555 27.139 28.3251 26.0951C27.1946 25.0414 26.6294 23.7689 26.6294 22.2778C26.6294 20.7866 27.1946 19.5191 28.3251 18.4753C29.4555 17.4216 30.8336 16.8947 32.4593 16.8947C34.0851 16.8947 35.4631 17.4216 36.5936 18.4753C37.7241 19.5191 38.2893 20.7866 38.2893 22.2778C38.2893 23.7689 37.7241 25.0414 36.5936 26.0951ZM28.9226 25.5583C29.8916 26.453 31.0705 26.9004 32.4593 26.9004C33.8482 26.9004 35.0217 26.453 35.9799 25.5583C36.9489 24.6537 37.4334 23.5602 37.4334 22.2778C37.4334 20.9954 36.9489 19.9068 35.9799 19.0121C35.0217 18.1075 33.8482 17.6552 32.4593 17.6552C31.0705 17.6552 29.8916 18.1075 28.9226 19.0121C27.9644 19.9068 27.4853 20.9954 27.4853 22.2778C27.4853 23.5602 27.9644 24.6537 28.9226 25.5583Z" fill="white"/>
<path d="M51.2155 22.6357V23.0383C51.2155 24.3405 50.7149 25.439 49.7136 26.3337C48.7123 27.2185 47.3934 27.6609 45.757 27.6609C44.0343 27.6609 42.6132 27.1439 41.4935 26.1101C40.3738 25.0662 39.8139 23.7888 39.8139 22.2778C39.8139 20.7667 40.3684 19.4943 41.4773 18.4604C42.5863 17.4166 43.9913 16.8947 45.6924 16.8947C46.7259 16.8947 47.6734 17.1234 48.5347 17.5806C49.4068 18.0379 50.0797 18.6493 50.5534 19.4148L49.7943 19.8323C49.4175 19.1762 48.8577 18.6493 48.1148 18.2517C47.3827 17.854 46.5752 17.6552 45.6924 17.6552C44.2281 17.6552 43.0223 18.1025 42.0749 18.9972C41.1382 19.882 40.6699 20.9755 40.6699 22.2778C40.6699 23.5801 41.1436 24.6785 42.091 25.5732C43.0385 26.458 44.2604 26.9004 45.757 26.9004C47.0812 26.9004 48.1525 26.5673 48.9707 25.9013C49.789 25.2352 50.2465 24.3952 50.3434 23.3812H45.547V22.6357H51.2155Z" fill="white"/>
<path d="M54.2165 26.7513H59.5459V27.4968H53.3606V17.0587H54.2165V26.7513Z" fill="white"/>
<path d="M62.1809 26.7513H67.8332V27.4968H61.325V17.0587H67.7525V17.8043H62.1809V21.8603H67.3488V22.6058H62.1809V26.7513Z" fill="white"/>
<path d="M78.085 17.0587C79.0971 17.0587 79.9369 17.3669 80.6044 17.9833C81.2719 18.5996 81.6056 19.37 81.6056 20.2945C81.6056 21.2191 81.2719 21.9895 80.6044 22.6058C79.9369 23.2122 79.0971 23.5154 78.085 23.5154H75.0974V27.4968H74.2415V17.0587H78.085ZM78.085 22.7699C78.8602 22.7699 79.4954 22.5363 79.9907 22.069C80.4967 21.6018 80.7497 21.0103 80.7497 20.2945C80.7497 19.5688 80.4967 18.9724 79.9907 18.5052C79.4954 18.0379 78.8602 17.8043 78.085 17.8043H75.0974V22.7699H78.085Z" fill="white"/>
<path d="M84.5758 26.7513H89.9051V27.4968H83.7198V17.0587H84.5758V26.7513Z" fill="white"/>
<path d="M99.6061 27.4968L98.5079 24.8426H92.8394L91.7412 27.4968H90.8369L95.2295 17.0587H96.1339L100.51 27.4968H99.6061ZM93.1624 24.097H98.201L95.6817 18.028L93.1624 24.097Z" fill="white"/>
<path d="M108.554 17.0587L104.436 23.2023V27.4968H103.58V23.2023L99.4617 17.0587H100.431L104.016 22.4418L107.585 17.0587H108.554Z" fill="white"/>
</svg>
