<svg width="35" height="31" viewBox="0 0 35 31" fill="none" xmlns="http://www.w3.org/2000/svg">
<path d="M34.9385 15.6839C34.9385 17.0666 34.1454 18.255 32.868 18.7847L4.81562 30.4252C3.65875 30.9051 2.31894 30.7168 1.33115 29.8622C0.364085 29.0249 -0.0406433 27.7339 0.275805 26.4945L2.77283 16.7026L3.03223 15.6839L2.77283 14.6652L0.275805 4.8733C-0.0406433 3.63393 0.364085 2.34294 1.33115 1.50564C2.28756 0.678188 3.62147 0.447235 4.81562 0.942688L32.868 12.5832C34.1454 13.1128 34.9385 14.3013 34.9385 15.6839Z" fill="white"/>
<path d="M2.7729 16.7025L0.275805 26.4945C-0.0406433 27.7339 0.364085 29.0248 1.33115 29.8622C2.31894 30.7168 3.65875 30.9051 4.81562 30.4251L32.868 18.7846C34.1454 18.2549 34.9385 17.0665 34.9385 15.6838H3.0323L2.7729 16.7025Z" fill="white"/>
<path d="M16.0161 15.684C16.0161 16.2462 15.5605 16.7026 14.9974 16.7026H2.77295L3.03236 15.684L2.77295 14.6653H14.9974C15.5604 14.6654 16.0161 15.1217 16.0161 15.684Z" fill="url(#paint0_linear_54_16)"/>
<defs>
<linearGradient id="paint0_linear_54_16" x1="12.1655" y1="14.7224" x2="12.0102" y2="17.2666" gradientUnits="userSpaceOnUse">
<stop stop-color="#747DEF"/>
<stop offset="1" stop-color="#5E3BE1"/>
</linearGradient>
</defs>
</svg>
