<svg width="139" height="96" viewBox="0 0 139 96" fill="none" xmlns="http://www.w3.org/2000/svg">
<path d="M74.8865 63.0348C73.5721 62.5766 72.1508 62.3574 70.7113 62.3903C66.9873 62.4335 63.9279 63.8964 63.8784 65.6574C63.8288 67.4183 66.8079 68.8101 70.5319 68.7669C71.9705 68.7662 73.4047 68.5141 74.7461 68.0264C75.3798 67.7818 75.7986 67.2468 75.8142 66.6621L75.8785 64.3744C75.8967 63.7894 75.5072 63.264 74.8865 63.0348Z" fill="#D5D6DB"/>
<path d="M82.4267 35.9428C81.4735 35.6107 80.4428 35.4518 79.3988 35.4757C76.6992 35.507 74.4802 36.5673 74.4443 37.8432C74.4084 39.119 76.5695 40.1285 79.2688 40.0972C80.3121 40.0964 81.3522 39.9132 82.325 39.5596C82.7841 39.3822 83.0874 38.9945 83.0988 38.5706L83.1454 36.9142C83.1587 36.4903 82.8768 36.1091 82.4267 35.9428Z" fill="#D5D6DB"/>
<path d="M70.9445 30.1429C70.7711 30.0064 70.5417 29.9327 70.3011 29.9358L63.9597 30.0096C63.4297 30.0151 62.9889 30.3856 62.9753 30.8376C62.9721 30.9412 62.992 31.0437 63.0342 31.1393L69.4394 45.8112L90.5848 45.5648L70.9445 30.1429Z" fill="#029BC5"/>
<path d="M119.515 58.7935L62.1686 59.1449L31.7491 53.7034L17.7738 48.451L17.8494 45.2758L112.921 45.522C115.758 45.5239 118.523 46.1612 120.938 47.3698C121.992 47.9045 122.959 48.5512 123.817 49.2946C124.582 49.947 125.23 50.6914 125.741 51.5056C126.307 52.4204 127.837 53.4351 127.839 54.5581C127.841 54.5578 126.725 59.0136 119.515 58.7935Z" fill="#E1E6E9"/>
<path d="M64.8479 56.05L29.3546 73.4072C28.8838 73.6682 28.7383 74.1976 29.0294 74.5893C29.2079 74.8298 29.5205 74.9727 29.8598 74.9692L36.1882 74.9084C37.4055 74.8965 38.6158 74.6727 39.7442 74.2511L99.5872 55.0656L64.8479 56.05Z" fill="#029BC5"/>
<path d="M20.4302 27.1509C20.1958 26.8644 19.809 26.6973 19.3919 26.7021L14.1549 26.7616C13.4415 26.7695 12.8492 27.2686 12.8317 27.8765C12.8285 27.9921 12.8464 28.1068 12.8853 28.2162L18.1703 43.1664L33.5131 43.1265L20.4302 27.1509Z" fill="#029BC5"/>
<path d="M20.7517 46.8729L10.1708 51.2842C10.0171 51.3465 9.9478 51.5016 10.0161 51.6304C10.0654 51.7232 10.1758 51.7806 10.297 51.7763L15.1841 51.7319C15.2221 51.7316 15.2602 51.7252 15.2959 51.7132L29.8083 46.7944L20.7517 46.8729Z" fill="#029BC5"/>
<path d="M122.928 49.216C122.045 48.4494 121.049 47.784 119.962 47.2347C118.088 48.0143 116.468 49.1918 115.265 50.6496C115.05 50.9595 115.165 51.3497 115.521 51.5211C115.632 51.5743 115.758 51.6019 115.887 51.6012L124.906 51.4994C124.381 50.6575 123.716 49.8888 122.928 49.216Z" fill="#029BC5"/>
<path d="M104.144 48.0371L110.019 47.9926L109.798 57.1183L103.923 57.1628L104.144 48.0371Z" fill="#D5D6DB"/>
<path d="M99.8473 49.0321C99.1388 49.0385 98.5511 49.5314 98.5351 50.1332L98.5091 51.1082C98.517 51.7093 99.0981 52.175 99.8071 52.1483C100.482 52.1227 101.036 51.6583 101.074 51.0852L101.1 50.1102C101.116 49.5089 100.555 49.0263 99.8473 49.0321Z" fill="#3A556A"/>
<path d="M94.5921 49.0322C93.8836 49.0385 93.2959 49.5314 93.2798 50.1332L93.2539 51.1082C93.2618 51.7093 93.8428 52.175 94.5519 52.1483C95.2268 52.1227 95.7805 51.6583 95.8188 51.0853L95.8448 50.1103C95.8605 49.509 95.3 49.0263 94.5921 49.0322Z" fill="#3A556A"/>
<path d="M89.3351 49.0322C88.6269 49.0393 88.0404 49.5319 88.0244 50.1332L87.9984 51.1082C88.0064 51.7093 88.5874 52.1749 89.2965 52.1483C89.9713 52.1227 90.5251 51.6583 90.5634 51.0853L90.5893 50.1103C90.6054 49.5085 90.0439 49.0259 89.3351 49.0322Z" fill="#3A556A"/>
<path d="M84.08 49.0322C83.3718 49.0393 82.7853 49.5319 82.7693 50.1333L82.7433 51.1083C82.7512 51.7093 83.3323 52.175 84.0413 52.1484C84.7162 52.1228 85.27 51.6584 85.3083 51.0853L85.3343 50.1103C85.35 49.5085 84.7885 49.0259 84.08 49.0322Z" fill="#3A556A"/>
<path d="M78.8251 49.0327C78.1165 49.0397 77.5297 49.5326 77.5138 50.1341L77.4878 51.1096C77.4719 51.7109 78.0331 52.1933 78.7414 52.187C79.4496 52.1808 80.0367 51.6882 80.0527 51.0868L80.0786 50.1114C80.0955 49.51 79.5349 49.0272 78.8266 49.0327C78.826 49.0327 78.8257 49.0327 78.8251 49.0327Z" fill="#3A556A"/>
<path d="M73.5699 49.0327C72.8613 49.0398 72.2745 49.5326 72.2585 50.1342L72.2326 51.1096C72.2166 51.711 72.7778 52.1933 73.4861 52.1871C74.1944 52.1808 74.7815 51.6882 74.7975 51.0869L74.8234 50.1114C74.8402 49.5101 74.2796 49.0272 73.5714 49.0327C73.5708 49.0327 73.5702 49.0327 73.5699 49.0327Z" fill="#3A556A"/>
<path d="M68.3144 49.0327C67.6059 49.0397 67.0191 49.5325 67.0031 50.1341L66.9772 51.1095C66.9621 51.7109 67.5242 52.1925 68.2322 52.1854C68.939 52.1784 69.5249 51.6869 69.5417 51.0868L69.5676 50.1114C69.5839 49.5098 69.023 49.0269 68.3144 49.0327Z" fill="#3A556A"/>
<path d="M63.059 49.0326C62.3505 49.0397 61.7636 49.5325 61.7477 50.1341L61.7217 51.1095C61.7067 51.7109 62.2688 52.1925 62.9768 52.1854C63.6836 52.1784 64.2694 51.6868 64.2863 51.0868L64.3122 50.1113C64.3285 49.5097 63.7676 49.0268 63.059 49.0326Z" fill="#3A556A"/>
<path d="M57.8039 49.0327C57.0953 49.0397 56.5085 49.5326 56.4926 50.1341L56.4667 51.1096C56.4516 51.7109 57.0137 52.1925 57.7217 52.1854C58.4285 52.1784 59.0143 51.6869 59.0312 51.0868L59.0571 50.1114C59.073 49.5098 58.5122 49.0269 57.8039 49.0327Z" fill="#3A556A"/>
<path d="M52.5471 49.0326C51.8388 49.0389 51.2517 49.5315 51.2357 50.1328L51.2357 50.1341L51.2098 51.1095C51.1947 51.7109 51.7568 52.1925 52.4648 52.1854C53.1716 52.1784 53.7575 51.6868 53.7743 51.0868L53.8002 50.1113C53.8165 49.5097 53.2556 49.0268 52.5471 49.0326Z" fill="#3A556A"/>
<path d="M47.2933 49.0327C46.585 49.0389 45.9979 49.5315 45.982 50.1328L45.9819 50.1341L45.956 51.1095C45.941 51.7108 46.5031 52.1924 47.2111 52.1854C47.9179 52.1784 48.5037 51.6869 48.5206 51.0868L48.5465 50.1114C48.5624 49.5098 48.0015 49.0269 47.2933 49.0327Z" fill="#3A556A"/>
</svg>
